<svg xmlns="http://www.w3.org/2000/svg" xmlns:xlink="http://www.w3.org/1999/xlink" width="50" zoomAndPan="magnify" viewBox="0 0 37.5 37.499999" height="50" preserveAspectRatio="xMidYMid meet" version="1.0"><defs><clipPath id="6f94a965a2"><path d="M 27 0 L 34.949219 0 L 34.949219 8 L 27 8 Z M 27 0 " clip-rule="nonzero"/></clipPath><clipPath id="2e93fafaf5"><path d="M 7 0 L 34.949219 0 L 34.949219 37.007812 L 7 37.007812 Z M 7 0 " clip-rule="nonzero"/></clipPath><clipPath id="e982ad9027"><path d="M 28 7 L 34.949219 7 L 34.949219 9 L 28 9 Z M 28 7 " clip-rule="nonzero"/></clipPath><clipPath id="a3c9313501"><path d="M 2.382812 1 L 25 1 L 25 12 L 2.382812 12 Z M 2.382812 1 " clip-rule="nonzero"/></clipPath></defs><g clip-path="url(#6f94a965a2)"><path fill="#59caff" d="M 27.707031 0 L 34.941406 7.164062 L 27.707031 7.164062 Z M 27.707031 0 " fill-opacity="1" fill-rule="nonzero"/></g><g clip-path="url(#2e93fafaf5)"><path fill="#0096dc" d="M 34.941406 7.164062 L 34.941406 37.007812 L 7.210938 37.007812 L 7.210938 0 L 27.707031 0 L 27.707031 7.164062 Z M 34.941406 7.164062 " fill-opacity="1" fill-rule="nonzero"/></g><path fill="#006bc0" d="M 8.417969 4.773438 L 8.417969 33.425781 C 8.417969 33.742188 8.476562 34.046875 8.601562 34.339844 C 8.722656 34.632812 8.898438 34.890625 9.121094 35.113281 C 9.347656 35.335938 9.609375 35.511719 9.90625 35.632812 C 10.199219 35.753906 10.507812 35.8125 10.828125 35.8125 L 31.324219 35.8125 C 31.644531 35.8125 31.953125 35.753906 32.25 35.632812 C 32.542969 35.511719 32.804688 35.335938 33.03125 35.113281 C 33.257812 34.890625 33.429688 34.632812 33.554688 34.339844 C 33.675781 34.046875 33.738281 33.742188 33.738281 33.425781 L 33.738281 32.15625 C 8.417969 30.613281 8.417969 4.773438 8.417969 4.773438 Z M 8.417969 4.773438 " fill-opacity="1" fill-rule="nonzero"/><g clip-path="url(#e982ad9027)"><path fill="#005599" d="M 28.3125 7.164062 L 34.941406 7.164062 L 34.941406 8.355469 L 28.3125 8.355469 Z M 28.3125 7.164062 " fill-opacity="1" fill-rule="nonzero"/></g><g clip-path="url(#a3c9313501)"><path fill="#006bc0" d="M 2.386719 1.789062 L 24.089844 1.789062 L 24.089844 11.339844 L 2.386719 11.339844 Z M 2.386719 1.789062 " fill-opacity="1" fill-rule="nonzero"/></g><path fill="#005599" d="M 7.210938 11.339844 L 22.886719 11.339844 L 22.886719 13.132812 L 7.210938 13.132812 Z M 7.210938 11.339844 " fill-opacity="1" fill-rule="nonzero"/><path fill="#ffffff" d="M 16.855469 30.441406 L 16.253906 30.441406 C 15.855469 30.441406 15.46875 30.363281 15.101562 30.210938 C 14.730469 30.0625 14.40625 29.84375 14.125 29.566406 C 13.839844 29.285156 13.621094 28.964844 13.46875 28.597656 C 13.316406 28.234375 13.238281 27.851562 13.238281 27.457031 L 13.238281 25.664062 C 13.214844 25.585938 13.085938 25.515625 12.992188 25.460938 C 12.703125 25.308594 12.441406 25.121094 12.207031 24.894531 C 12.089844 24.777344 12.03125 24.636719 12.03125 24.472656 C 12.03125 24.308594 12.089844 24.167969 12.207031 24.050781 C 12.441406 23.824219 12.703125 23.636719 12.992188 23.484375 C 13.078125 23.4375 13.164062 23.382812 13.238281 23.324219 L 13.238281 21.488281 C 13.238281 21.09375 13.316406 20.710938 13.46875 20.347656 C 13.621094 19.980469 13.839844 19.65625 14.125 19.378906 C 14.40625 19.097656 14.730469 18.882812 15.101562 18.730469 C 15.46875 18.578125 15.855469 18.503906 16.253906 18.503906 L 16.855469 18.503906 L 16.855469 19.695312 L 16.253906 19.695312 C 16.015625 19.695312 15.78125 19.742188 15.5625 19.832031 C 15.339844 19.925781 15.144531 20.054688 14.976562 20.222656 C 14.804688 20.390625 14.675781 20.582031 14.582031 20.800781 C 14.492188 21.023438 14.445312 21.25 14.445312 21.488281 L 14.445312 23.277344 C 14.445312 23.535156 14.375 23.773438 14.238281 23.988281 C 14.097656 24.203125 13.910156 24.367188 13.671875 24.472656 C 13.910156 24.578125 14.097656 24.738281 14.238281 24.957031 C 14.375 25.171875 14.445312 25.410156 14.445312 25.664062 L 14.445312 27.457031 C 14.445312 27.695312 14.492188 27.921875 14.582031 28.140625 C 14.675781 28.359375 14.804688 28.554688 14.976562 28.722656 C 15.144531 28.890625 15.339844 29.019531 15.5625 29.109375 C 15.78125 29.203125 16.015625 29.246094 16.253906 29.246094 L 16.855469 29.246094 Z M 16.855469 30.441406 " fill-opacity="1" fill-rule="nonzero"/><path fill="#ffffff" d="M 25.898438 30.441406 L 25.296875 30.441406 L 25.296875 29.246094 L 25.898438 29.246094 C 26.140625 29.246094 26.371094 29.203125 26.59375 29.109375 C 26.8125 29.019531 27.007812 28.890625 27.179688 28.722656 C 27.347656 28.554688 27.480469 28.359375 27.570312 28.140625 C 27.664062 27.921875 27.707031 27.695312 27.707031 27.457031 L 27.707031 25.664062 C 27.707031 25.410156 27.777344 25.171875 27.917969 24.957031 C 28.058594 24.738281 28.246094 24.578125 28.480469 24.472656 C 28.246094 24.367188 28.058594 24.203125 27.917969 23.988281 C 27.777344 23.773438 27.707031 23.535156 27.707031 23.277344 L 27.707031 21.488281 C 27.707031 21.25 27.664062 21.023438 27.570312 20.800781 C 27.480469 20.582031 27.347656 20.390625 27.179688 20.222656 C 27.007812 20.054688 26.8125 19.925781 26.59375 19.832031 C 26.371094 19.742188 26.140625 19.695312 25.898438 19.695312 L 25.296875 19.695312 L 25.296875 18.503906 L 25.898438 18.503906 C 26.300781 18.503906 26.683594 18.578125 27.050781 18.730469 C 27.421875 18.882812 27.746094 19.097656 28.03125 19.378906 C 28.3125 19.65625 28.53125 19.980469 28.683594 20.347656 C 28.835938 20.710938 28.914062 21.09375 28.914062 21.488281 L 28.914062 23.277344 C 28.941406 23.355469 29.070312 23.429688 29.160156 23.484375 C 29.449219 23.636719 29.710938 23.824219 29.945312 24.050781 C 30.0625 24.167969 30.121094 24.308594 30.121094 24.472656 C 30.121094 24.636719 30.0625 24.777344 29.945312 24.894531 C 29.710938 25.121094 29.449219 25.308594 29.160156 25.460938 C 29.074219 25.507812 28.988281 25.558594 28.914062 25.621094 L 28.914062 27.457031 C 28.914062 27.851562 28.835938 28.234375 28.683594 28.597656 C 28.53125 28.964844 28.3125 29.285156 28.03125 29.566406 C 27.746094 29.84375 27.421875 30.0625 27.050781 30.210938 C 26.683594 30.363281 26.300781 30.441406 25.898438 30.441406 Z M 25.898438 30.441406 " fill-opacity="1" fill-rule="nonzero"/><path fill="#005599" d="M 27.707031 29.84375 C 27.421875 30.21875 27.070312 30.511719 26.644531 30.722656 C 26.21875 30.933594 25.769531 31.039062 25.296875 31.039062 L 24.695312 31.039062 L 24.695312 29.84375 L 25.296875 29.84375 L 25.296875 30.441406 L 25.898438 30.441406 C 26.570312 30.445312 27.171875 30.246094 27.707031 29.84375 Z M 27.707031 29.84375 " fill-opacity="1" fill-rule="nonzero"/><path fill="#005599" d="M 27.835938 25.09375 C 27.746094 25.273438 27.703125 25.464844 27.707031 25.664062 L 27.707031 27.457031 C 27.707031 27.769531 27.628906 28.058594 27.476562 28.332031 C 27.320312 28.605469 27.109375 28.820312 26.839844 28.984375 C 27.015625 28.699219 27.105469 28.386719 27.105469 28.054688 L 27.105469 26.261719 C 27.101562 26.015625 27.167969 25.785156 27.300781 25.574219 C 27.429688 25.363281 27.609375 25.203125 27.835938 25.09375 Z M 27.835938 25.09375 " fill-opacity="1" fill-rule="nonzero"/><path fill="#005599" d="M 29.480469 25.265625 C 29.453125 25.351562 29.40625 25.429688 29.34375 25.492188 C 29.210938 25.621094 29.066406 25.742188 28.914062 25.84375 L 28.914062 25.625 C 28.992188 25.5625 29.074219 25.507812 29.160156 25.464844 C 29.273438 25.402344 29.378906 25.339844 29.480469 25.265625 Z M 29.480469 25.265625 " fill-opacity="1" fill-rule="nonzero"/><path fill="#005599" d="M 28.480469 24.472656 C 28.214844 24.609375 28.003906 24.804688 27.851562 25.058594 C 27.625 24.949219 27.441406 24.785156 27.304688 24.574219 C 27.171875 24.359375 27.105469 24.128906 27.105469 23.875 L 27.105469 22.085938 C 27.105469 21.847656 27.058594 21.621094 26.964844 21.398438 C 26.875 21.179688 26.742188 20.988281 26.574219 20.820312 C 26.40625 20.652344 26.210938 20.523438 25.988281 20.433594 C 25.765625 20.339844 25.535156 20.292969 25.296875 20.292969 L 24.695312 20.292969 L 24.695312 19.101562 L 25.296875 19.101562 L 25.296875 19.695312 L 25.898438 19.695312 C 26.140625 19.699219 26.371094 19.742188 26.589844 19.835938 C 26.8125 19.925781 27.007812 20.054688 27.175781 20.222656 C 27.347656 20.390625 27.476562 20.585938 27.570312 20.804688 C 27.660156 21.023438 27.707031 21.25 27.707031 21.488281 L 27.707031 23.277344 C 27.707031 23.535156 27.777344 23.769531 27.917969 23.988281 C 28.058594 24.203125 28.246094 24.363281 28.480469 24.472656 Z M 28.480469 24.472656 " fill-opacity="1" fill-rule="nonzero"/><path fill="#005599" d="M 16.253906 30.441406 L 16.253906 31.039062 L 15.652344 31.039062 C 15.25 31.039062 14.867188 30.960938 14.496094 30.8125 C 14.128906 30.660156 13.800781 30.445312 13.519531 30.164062 C 13.238281 29.882812 13.019531 29.5625 12.867188 29.195312 C 12.714844 28.828125 12.636719 28.449219 12.636719 28.054688 L 12.636719 26.261719 C 12.613281 26.183594 12.480469 26.113281 12.390625 26.058594 C 12.101562 25.90625 11.839844 25.714844 11.605469 25.492188 C 11.488281 25.375 11.429688 25.234375 11.429688 25.070312 C 11.429688 24.902344 11.488281 24.761719 11.605469 24.644531 C 11.75 24.507812 11.902344 24.382812 12.070312 24.273438 C 11.980469 24.511719 12.027344 24.71875 12.207031 24.894531 C 12.445312 25.121094 12.707031 25.308594 12.992188 25.464844 C 13.082031 25.515625 13.214844 25.589844 13.238281 25.664062 L 13.238281 27.457031 C 13.238281 27.851562 13.316406 28.234375 13.46875 28.597656 C 13.621094 28.964844 13.839844 29.285156 14.121094 29.566406 C 14.40625 29.847656 14.730469 30.0625 15.101562 30.214844 C 15.46875 30.363281 15.855469 30.441406 16.253906 30.441406 Z M 16.253906 30.441406 " fill-opacity="1" fill-rule="nonzero"/><path fill="#005599" d="M 13.84375 19.695312 C 13.4375 20.226562 13.238281 20.824219 13.238281 21.488281 L 13.238281 23.320312 C 13.164062 23.382812 13.082031 23.4375 12.992188 23.480469 C 12.890625 23.539062 12.769531 23.613281 12.636719 23.695312 L 12.636719 22.085938 C 12.636719 21.613281 12.742188 21.171875 12.957031 20.75 C 13.167969 20.332031 13.464844 19.980469 13.84375 19.695312 Z M 13.84375 19.695312 " fill-opacity="1" fill-rule="nonzero"/><path fill="#005599" d="M 16.253906 19.695312 L 16.253906 20.292969 L 15.652344 20.292969 C 15.3125 20.292969 15 20.382812 14.710938 20.554688 C 14.875 20.289062 15.09375 20.082031 15.367188 19.929688 C 15.644531 19.773438 15.9375 19.699219 16.253906 19.695312 Z M 16.253906 19.695312 " fill-opacity="1" fill-rule="nonzero"/><path fill="#ffffff" d="M 12.636719 9.550781 C 10.730469 9.550781 10.226562 8.378906 10.226562 7.757812 L 10.828125 7.757812 L 11.429688 7.742188 C 11.4375 7.84375 11.527344 8.355469 12.636719 8.355469 C 12.804688 8.355469 12.945312 8.296875 13.0625 8.179688 C 13.179688 8.066406 13.238281 7.925781 13.238281 7.757812 C 13.238281 7.59375 13.179688 7.453125 13.0625 7.335938 C 12.945312 7.222656 12.804688 7.164062 12.636719 7.164062 L 12.035156 7.164062 C 11.792969 7.164062 11.5625 7.117188 11.339844 7.027344 C 11.121094 6.933594 10.925781 6.804688 10.753906 6.636719 C 10.585938 6.46875 10.453125 6.277344 10.363281 6.058594 C 10.269531 5.835938 10.226562 5.609375 10.226562 5.371094 C 10.226562 5.132812 10.269531 4.90625 10.363281 4.6875 C 10.453125 4.46875 10.585938 4.273438 10.753906 4.105469 C 10.925781 3.9375 11.121094 3.808594 11.339844 3.71875 C 11.5625 3.625 11.792969 3.582031 12.035156 3.582031 C 13.941406 3.582031 14.445312 4.753906 14.445312 5.371094 L 13.238281 5.371094 C 13.234375 5.285156 13.144531 4.773438 12.035156 4.773438 C 11.867188 4.773438 11.726562 4.832031 11.605469 4.949219 C 11.488281 5.066406 11.429688 5.207031 11.429688 5.371094 C 11.429688 5.535156 11.488281 5.675781 11.605469 5.792969 C 11.726562 5.910156 11.867188 5.96875 12.035156 5.96875 L 12.636719 5.96875 C 12.875 5.96875 13.105469 6.015625 13.328125 6.105469 C 13.550781 6.195312 13.746094 6.324219 13.914062 6.492188 C 14.085938 6.660156 14.214844 6.855469 14.308594 7.074219 C 14.398438 7.292969 14.445312 7.523438 14.445312 7.757812 C 14.445312 7.996094 14.398438 8.226562 14.308594 8.445312 C 14.214844 8.664062 14.085938 8.859375 13.914062 9.027344 C 13.746094 9.195312 13.550781 9.324219 13.328125 9.414062 C 13.105469 9.503906 12.875 9.550781 12.636719 9.550781 Z M 12.636719 9.550781 " fill-opacity="1" fill-rule="nonzero"/><path fill="#08449e" d="M 13.578125 9.289062 C 13.414062 9.554688 13.191406 9.761719 12.917969 9.917969 C 12.644531 10.070312 12.347656 10.144531 12.035156 10.148438 C 10.128906 10.148438 9.621094 8.976562 9.621094 8.355469 L 10.359375 8.355469 C 10.605469 8.929688 11.25 9.550781 12.636719 9.550781 C 12.976562 9.550781 13.289062 9.460938 13.578125 9.289062 Z M 13.578125 9.289062 " fill-opacity="1" fill-rule="nonzero"/><path fill="#08449e" d="M 13.238281 7.757812 C 13.238281 7.925781 13.179688 8.066406 13.0625 8.179688 C 12.945312 8.296875 12.804688 8.355469 12.636719 8.355469 C 12.636719 8.191406 12.578125 8.050781 12.460938 7.933594 C 12.34375 7.816406 12.199219 7.757812 12.035156 7.757812 L 11.429688 7.757812 L 11.429688 7.742188 L 11.25 7.746094 L 11.242188 7.746094 C 10.859375 7.707031 10.523438 7.558594 10.234375 7.304688 C 9.945312 7.050781 9.757812 6.734375 9.671875 6.359375 C 9.585938 5.988281 9.621094 5.625 9.769531 5.269531 C 9.921875 4.917969 10.160156 4.640625 10.488281 4.441406 C 10.320312 4.71875 10.234375 5.015625 10.226562 5.339844 C 10.222656 5.664062 10.296875 5.964844 10.457031 6.25 C 10.617188 6.53125 10.839844 6.753906 11.121094 6.917969 C 11.402344 7.082031 11.707031 7.164062 12.035156 7.164062 L 12.636719 7.164062 C 12.804688 7.164062 12.945312 7.222656 13.0625 7.335938 C 13.179688 7.453125 13.238281 7.59375 13.238281 7.757812 Z M 13.238281 7.757812 " fill-opacity="1" fill-rule="nonzero"/><path fill="#08449e" d="M 13.84375 5.96875 L 12.636719 5.96875 C 12.628906 5.886719 12.539062 5.371094 11.429688 5.371094 C 11.429688 5.207031 11.488281 5.066406 11.605469 4.949219 C 11.726562 4.832031 11.867188 4.773438 12.035156 4.773438 C 13.144531 4.773438 13.234375 5.289062 13.238281 5.371094 L 13.710938 5.371094 C 13.796875 5.5625 13.839844 5.761719 13.84375 5.96875 Z M 13.84375 5.96875 " fill-opacity="1" fill-rule="nonzero"/><path fill="#ffffff" d="M 18.0625 9.550781 C 16.15625 9.550781 15.652344 8.378906 15.652344 7.757812 L 16.253906 7.757812 L 16.855469 7.742188 C 16.863281 7.84375 16.953125 8.355469 18.0625 8.355469 C 18.230469 8.355469 18.371094 8.296875 18.488281 8.179688 C 18.605469 8.066406 18.664062 7.925781 18.664062 7.757812 C 18.664062 7.59375 18.605469 7.453125 18.488281 7.335938 C 18.371094 7.222656 18.230469 7.164062 18.0625 7.164062 L 17.460938 7.164062 C 17.21875 7.164062 16.988281 7.117188 16.765625 7.027344 C 16.546875 6.933594 16.351562 6.804688 16.179688 6.636719 C 16.011719 6.46875 15.878906 6.277344 15.789062 6.058594 C 15.695312 5.835938 15.652344 5.609375 15.652344 5.371094 C 15.652344 5.132812 15.695312 4.90625 15.789062 4.6875 C 15.878906 4.46875 16.011719 4.273438 16.179688 4.105469 C 16.351562 3.9375 16.546875 3.808594 16.765625 3.71875 C 16.988281 3.625 17.21875 3.582031 17.460938 3.582031 C 19.367188 3.582031 19.871094 4.753906 19.871094 5.371094 L 18.664062 5.371094 C 18.660156 5.285156 18.570312 4.773438 17.460938 4.773438 C 17.292969 4.773438 17.152344 4.832031 17.03125 4.949219 C 16.914062 5.066406 16.855469 5.207031 16.855469 5.371094 C 16.855469 5.535156 16.914062 5.675781 17.03125 5.792969 C 17.152344 5.910156 17.292969 5.96875 17.460938 5.96875 L 18.0625 5.96875 C 18.300781 5.96875 18.53125 6.015625 18.753906 6.105469 C 18.976562 6.195312 19.171875 6.324219 19.339844 6.492188 C 19.511719 6.660156 19.640625 6.855469 19.734375 7.074219 C 19.824219 7.292969 19.871094 7.523438 19.871094 7.757812 C 19.871094 7.996094 19.824219 8.226562 19.734375 8.445312 C 19.640625 8.664062 19.511719 8.859375 19.339844 9.027344 C 19.171875 9.195312 18.976562 9.324219 18.753906 9.414062 C 18.53125 9.503906 18.300781 9.550781 18.0625 9.550781 Z M 18.0625 9.550781 " fill-opacity="1" fill-rule="nonzero"/><path fill="#08449e" d="M 19.003906 9.289062 C 18.839844 9.554688 18.617188 9.761719 18.34375 9.917969 C 18.070312 10.070312 17.773438 10.144531 17.460938 10.148438 C 15.554688 10.148438 15.046875 8.976562 15.046875 8.355469 L 15.785156 8.355469 C 16.03125 8.929688 16.675781 9.550781 18.0625 9.550781 C 18.402344 9.550781 18.714844 9.460938 19.003906 9.289062 Z M 19.003906 9.289062 " fill-opacity="1" fill-rule="nonzero"/><path fill="#08449e" d="M 18.664062 7.757812 C 18.664062 7.925781 18.605469 8.066406 18.488281 8.179688 C 18.371094 8.296875 18.230469 8.355469 18.0625 8.355469 C 18.0625 8.191406 18.003906 8.050781 17.886719 7.933594 C 17.769531 7.816406 17.625 7.757812 17.460938 7.757812 L 16.855469 7.757812 L 16.855469 7.742188 L 16.675781 7.746094 L 16.667969 7.746094 C 16.285156 7.707031 15.949219 7.558594 15.660156 7.304688 C 15.371094 7.050781 15.183594 6.734375 15.097656 6.359375 C 15.011719 5.988281 15.046875 5.625 15.195312 5.269531 C 15.347656 4.917969 15.585938 4.640625 15.917969 4.441406 C 15.746094 4.71875 15.660156 5.015625 15.652344 5.339844 C 15.648438 5.664062 15.722656 5.964844 15.882812 6.25 C 16.042969 6.53125 16.265625 6.753906 16.546875 6.917969 C 16.828125 7.082031 17.132812 7.164062 17.460938 7.164062 L 18.0625 7.164062 C 18.230469 7.164062 18.371094 7.222656 18.488281 7.335938 C 18.605469 7.453125 18.664062 7.59375 18.664062 7.757812 Z M 18.664062 7.757812 " fill-opacity="1" fill-rule="nonzero"/><path fill="#08449e" d="M 19.269531 5.96875 L 18.0625 5.96875 C 18.054688 5.886719 17.964844 5.371094 16.855469 5.371094 C 16.855469 5.207031 16.914062 5.066406 17.03125 4.949219 C 17.152344 4.832031 17.292969 4.773438 17.460938 4.773438 C 18.570312 4.773438 18.660156 5.289062 18.664062 5.371094 L 19.136719 5.371094 C 19.222656 5.5625 19.265625 5.761719 19.269531 5.96875 Z M 19.269531 5.96875 " fill-opacity="1" fill-rule="nonzero"/><path fill="#f2f2f2" d="M 9.019531 9.550781 L 8.417969 9.550781 C 8.015625 9.550781 7.632812 9.472656 7.261719 9.324219 C 6.894531 9.171875 6.566406 8.957031 6.285156 8.675781 C 6.003906 8.394531 5.785156 8.074219 5.632812 7.707031 C 5.476562 7.34375 5.402344 6.960938 5.402344 6.566406 C 5.402344 6.171875 5.476562 5.789062 5.632812 5.421875 C 5.785156 5.058594 6.003906 4.734375 6.285156 4.457031 C 6.566406 4.175781 6.894531 3.960938 7.261719 3.808594 C 7.632812 3.65625 8.015625 3.582031 8.417969 3.582031 L 9.019531 3.582031 L 9.019531 4.773438 L 8.417969 4.773438 C 8.175781 4.773438 7.945312 4.820312 7.722656 4.910156 C 7.503906 5.003906 7.308594 5.132812 7.136719 5.300781 C 6.96875 5.46875 6.835938 5.660156 6.746094 5.878906 C 6.652344 6.101562 6.609375 6.328125 6.609375 6.566406 C 6.609375 6.804688 6.652344 7.03125 6.746094 7.25 C 6.835938 7.46875 6.96875 7.664062 7.136719 7.832031 C 7.308594 8 7.503906 8.128906 7.722656 8.21875 C 7.945312 8.3125 8.175781 8.355469 8.417969 8.355469 L 9.019531 8.355469 Z M 9.019531 9.550781 " fill-opacity="1" fill-rule="nonzero"/><path fill="#08449e" d="M 8.417969 9.550781 L 8.417969 10.148438 L 7.8125 10.148438 C 7.496094 10.148438 7.1875 10.097656 6.886719 10.003906 C 6.585938 9.90625 6.308594 9.765625 6.050781 9.582031 C 5.792969 9.402344 5.574219 9.183594 5.386719 8.929688 C 5.199219 8.679688 5.054688 8.402344 4.953125 8.105469 C 4.855469 7.808594 4.800781 7.503906 4.800781 7.191406 C 4.796875 6.878906 4.84375 6.570312 4.9375 6.273438 C 5.03125 5.972656 5.167969 5.695312 5.351562 5.441406 C 5.535156 5.183594 5.75 4.964844 6.003906 4.773438 C 5.601562 5.304688 5.398438 5.902344 5.402344 6.566406 C 5.402344 6.960938 5.476562 7.34375 5.632812 7.707031 C 5.785156 8.074219 6.003906 8.394531 6.285156 8.675781 C 6.566406 8.957031 6.894531 9.171875 7.261719 9.324219 C 7.632812 9.472656 8.015625 9.550781 8.417969 9.550781 Z M 8.417969 9.550781 " fill-opacity="1" fill-rule="nonzero"/><path fill="#08449e" d="M 8.417969 4.773438 L 8.417969 5.371094 L 7.8125 5.371094 C 7.476562 5.371094 7.160156 5.460938 6.871094 5.632812 C 7.039062 5.367188 7.257812 5.160156 7.53125 5.007812 C 7.804688 4.851562 8.101562 4.777344 8.417969 4.773438 Z M 8.417969 4.773438 " fill-opacity="1" fill-rule="nonzero"/></svg>