<?xml version="1.0" encoding="utf-8"?>
<!-- Generator: Adobe Illustrator 25.4.1, SVG Export Plug-In . SVG Version: 6.00 Build 0)  -->
<svg version="1.1" id="Capa_1" xmlns="http://www.w3.org/2000/svg" xmlns:xlink="http://www.w3.org/1999/xlink" x="200px" y="200px"
	 viewBox="0 0 595.3 841.9" style="enable-background:new 0 0 595.3 841.9;" xml:space="preserve">
<style type="text/css">
	.st0{fill:#FFFFFF;}
</style>
<path class="st0" d="M313.4,229c-61.9,0-112,50.1-112,112s50.1,112,112,112s112-50.1,112-112S375.2,229,313.4,229z M275.5,409.1
	c-33-0.1-61-27.3-63.3-60.6c-2.4-33.4,22-63.9,54.9-68.7c10.3-1.5,20.3-0.7,30.2,2.4c2.8,0.9,4,2.1,3.9,5.1
	c-0.2,8.5-0.1,17.1-0.1,26.5c-13.4-8.9-26.8-10.6-40.8-4.1c-9.6,4.5-15.9,12.1-19.4,22c-6.9,19.5,3.7,41.4,23.3,48.3
	c17.5,6.2,40.4-2,45.7-17c-13.5,0-26.6,0-40.4,0c0-7.3-0.1-14.4,0.2-21.4c0-0.6,2.5-1.6,3.8-1.6c13.1-0.1,26.3,0,39.4,0.1
	c9.3,0,18.6,0,28.6,0c-0.7,11.3-0.5,22.4-5.6,32.3C323.2,396.5,303,409.2,275.5,409.1z M341.6,414.2c-9,0-18,0-27.1,0
	c-0.9-4.2-0.5-7.5,3.9-10.2c9.7-6,16.8-14.6,23.3-24.2C341.6,391.1,341.6,402.5,341.6,414.2z M375.1,361.8
	c-9.1,0.6-18.3,0.1-27.6,0.1c0.7-7.5,1.4-14.4,2.1-21.8c6.7,0,13.1,0.2,19.4,0c9.6-0.3,16.2-4.8,17.8-12.6
	c2.5-12.8-1.3-23.1-16.2-24.1c-9.4-0.7-18.9-0.1-28.7-0.1c0,9.4,0,18.9,0,28.7c-9.4,0-18.4,0-27.6,0c-0.1-1.2-0.3-2.3-0.3-3.5
	c0-14.4,0-28.9-0.1-43.3c0-2.9,0.6-4.2,3.8-4.1c20,0.2,40-0.2,59.9,0.5c12.3,0.4,23.1,5.4,30,16.1c8.9,13.8,9.3,28.6,2.5,43.3
	C403.2,355.6,390.1,360.9,375.1,361.8z"/>
</svg>
