<svg id="Capa_1" data-name="Capa 1" xmlns="http://www.w3.org/2000/svg" viewBox="0 0 224 224"><defs><style>.cls-1{fill:#e8b948;}</style></defs><path class="cls-1" d="M313.36,229a112,112,0,1,0,112,112A112,112,0,0,0,313.36,229ZM275.48,409.09c-33-.14-61-27.25-63.33-60.63s22-63.88,54.91-68.75a67.09,67.09,0,0,1,30.22,2.42c2.81.87,4,2.07,3.92,5.14-.2,8.54-.07,17.09-.07,26.51-13.38-8.89-26.79-10.63-40.75-4.12-9.61,4.47-15.94,12.07-19.45,22-6.87,19.46,3.73,41.37,23.31,48.31,17.54,6.2,40.43-2,45.71-17H269.56c0-7.29-.09-14.37.17-21.43,0-.61,2.46-1.61,3.77-1.61,13.14-.08,26.27,0,39.41.06,9.31,0,18.62,0,28.56,0-.71,11.32-.48,22.44-5.62,32.3C323.21,396.53,303,409.22,275.48,409.09Zm66.1,5.09H314.46c-.91-4.25-.47-7.51,3.86-10.22,9.67-6,16.85-14.63,23.26-24.2Zm33.5-52.36c-9.15.55-18.35.1-27.64.1.7-7.47,1.36-14.4,2.06-21.81,6.65,0,13.06.19,19.45-.05,9.59-.34,16.24-4.8,17.78-12.57,2.52-12.76-1.3-23.07-16.24-24.13-9.38-.67-18.85-.13-28.72-.13V332H314.18c-.12-1.21-.33-2.33-.34-3.46,0-14.43.05-28.86-.06-43.29,0-2.87.59-4.16,3.82-4.12,20,.22,40-.16,59.95.52,12.29.42,23.1,5.36,30,16.14,8.86,13.85,9.29,28.65,2.46,43.31S390.14,360.91,375.08,361.82Z" transform="translate(-201.36 -229)"/></svg>