<svg xmlns="http://www.w3.org/2000/svg" xmlns:xlink="http://www.w3.org/1999/xlink" width="50" zoomAndPan="magnify" viewBox="0 0 37.5 37.499999" height="50" preserveAspectRatio="xMidYMid meet" version="1.0"><defs><clipPath id="1bd8a3aec8"><path d="M 27 0 L 34.949219 0 L 34.949219 8 L 27 8 Z M 27 0 " clip-rule="nonzero"/></clipPath><clipPath id="17eb382bdb"><path d="M 7 0 L 34.949219 0 L 34.949219 37.007812 L 7 37.007812 Z M 7 0 " clip-rule="nonzero"/></clipPath><clipPath id="3f7cec4faa"><path d="M 28 7 L 34.949219 7 L 34.949219 9 L 28 9 Z M 28 7 " clip-rule="nonzero"/></clipPath><clipPath id="769d0fcc79"><path d="M 2.382812 1 L 25 1 L 25 12 L 2.382812 12 Z M 2.382812 1 " clip-rule="nonzero"/></clipPath></defs><g clip-path="url(#1bd8a3aec8)"><path fill="#ffaf36" d="M 27.707031 0 L 34.941406 7.164062 L 27.707031 7.164062 Z M 27.707031 0 " fill-opacity="1" fill-rule="nonzero"/></g><g clip-path="url(#17eb382bdb)"><path fill="#ff6d00" d="M 34.941406 7.164062 L 34.941406 37.007812 L 7.210938 37.007812 L 7.210938 0 L 27.707031 0 L 27.707031 7.164062 Z M 34.941406 7.164062 " fill-opacity="1" fill-rule="nonzero"/></g><path fill="#f54e00" d="M 8.417969 4.773438 L 8.417969 33.425781 C 8.417969 33.742188 8.476562 34.046875 8.601562 34.339844 C 8.722656 34.632812 8.898438 34.890625 9.121094 35.113281 C 9.347656 35.335938 9.609375 35.511719 9.90625 35.632812 C 10.199219 35.753906 10.507812 35.8125 10.828125 35.8125 L 31.324219 35.8125 C 31.644531 35.8125 31.953125 35.753906 32.25 35.632812 C 32.542969 35.511719 32.804688 35.335938 33.03125 35.113281 C 33.257812 34.890625 33.429688 34.632812 33.554688 34.339844 C 33.675781 34.046875 33.738281 33.742188 33.738281 33.425781 L 33.738281 32.15625 C 8.417969 30.613281 8.417969 4.773438 8.417969 4.773438 Z M 8.417969 4.773438 " fill-opacity="1" fill-rule="nonzero"/><g clip-path="url(#3f7cec4faa)"><path fill="#f54e00" d="M 28.3125 7.164062 L 34.941406 7.164062 L 34.941406 8.355469 L 28.3125 8.355469 Z M 28.3125 7.164062 " fill-opacity="1" fill-rule="nonzero"/></g><g clip-path="url(#769d0fcc79)"><path fill="#f54100" d="M 2.386719 1.789062 L 24.089844 1.789062 L 24.089844 11.339844 L 2.386719 11.339844 Z M 2.386719 1.789062 " fill-opacity="1" fill-rule="nonzero"/></g><path fill="#d63900" d="M 7.210938 11.339844 L 22.886719 11.339844 L 22.886719 13.132812 L 7.210938 13.132812 Z M 7.210938 11.339844 " fill-opacity="1" fill-rule="nonzero"/><path fill="#ffffff" d="M 20.472656 8.355469 L 20.472656 3.582031 L 19.269531 3.582031 L 19.269531 8.953125 C 19.269531 9.117188 19.328125 9.257812 19.445312 9.375 C 19.5625 9.492188 19.703125 9.550781 19.871094 9.550781 L 22.28125 9.550781 L 22.28125 8.355469 Z M 20.472656 8.355469 " fill-opacity="1" fill-rule="nonzero"/><path fill="#ffffff" d="M 7.210938 5.96875 L 5.402344 5.96875 L 5.402344 3.582031 L 4.195312 3.582031 L 4.195312 9.550781 L 5.402344 9.550781 L 5.402344 7.164062 L 7.210938 7.164062 L 7.210938 9.550781 L 8.417969 9.550781 L 8.417969 3.582031 L 7.210938 3.582031 Z M 7.210938 5.96875 " fill-opacity="1" fill-rule="nonzero"/><path fill="#ffffff" d="M 9.019531 4.773438 L 10.226562 4.773438 L 10.226562 9.550781 L 11.429688 9.550781 L 11.429688 4.773438 L 12.636719 4.773438 L 12.636719 3.582031 L 9.019531 3.582031 Z M 9.019531 4.773438 " fill-opacity="1" fill-rule="nonzero"/><path fill="#ffffff" d="M 17.578125 3.59375 C 17.441406 3.566406 17.304688 3.582031 17.179688 3.648438 C 17.050781 3.714844 16.960938 3.8125 16.90625 3.941406 L 15.652344 6.839844 L 14.394531 3.941406 C 14.339844 3.8125 14.25 3.714844 14.121094 3.648438 C 13.996094 3.582031 13.859375 3.566406 13.722656 3.59375 C 13.582031 3.621094 13.464844 3.691406 13.375 3.800781 C 13.285156 3.910156 13.238281 4.035156 13.238281 4.179688 L 13.238281 9.550781 L 14.445312 9.550781 L 14.445312 7.085938 L 15.097656 8.589844 C 15.203125 8.832031 15.386719 8.953125 15.652344 8.953125 C 15.914062 8.953125 16.101562 8.832031 16.203125 8.589844 L 16.855469 7.085938 L 16.855469 9.550781 L 18.0625 9.550781 L 18.0625 4.179688 C 18.0625 4.035156 18.015625 3.910156 17.925781 3.800781 C 17.835938 3.691406 17.71875 3.621094 17.578125 3.59375 Z M 17.578125 3.59375 " fill-opacity="1" fill-rule="nonzero"/><path fill="#ffffff" d="M 14.445312 29.246094 L 9.621094 23.875 L 14.445312 18.503906 L 16.855469 18.503906 L 12.035156 23.875 L 16.855469 29.246094 Z M 14.445312 29.246094 " fill-opacity="1" fill-rule="nonzero"/><path fill="#ffffff" d="M 27.707031 29.246094 L 32.53125 23.875 L 27.707031 18.503906 L 25.296875 18.503906 L 30.121094 23.875 L 25.296875 29.246094 Z M 27.707031 29.246094 " fill-opacity="1" fill-rule="nonzero"/><path fill="#ffffff" d="M 18.664062 29.246094 L 21.679688 18.503906 L 23.488281 18.503906 L 20.472656 29.246094 Z M 18.664062 29.246094 " fill-opacity="1" fill-rule="nonzero"/><path fill="#d63900" d="M 9.621094 23.875 L 13.375 19.695312 L 13.238281 19.695312 L 8.417969 25.070312 L 13.238281 30.441406 L 15.652344 30.441406 L 14.578125 29.246094 L 14.445312 29.246094 Z M 9.621094 23.875 " fill-opacity="1" fill-rule="nonzero"/><path fill="#d63900" d="M 30.121094 23.875 L 26.367188 19.695312 L 24.089844 19.695312 L 28.914062 25.070312 L 24.089844 30.441406 L 26.503906 30.441406 L 27.574219 29.246094 L 25.296875 29.246094 Z M 30.121094 23.875 " fill-opacity="1" fill-rule="nonzero"/><path fill="#d63900" d="M 21.34375 19.695312 L 20.472656 19.695312 L 17.460938 30.441406 L 19.269531 30.441406 L 19.601562 29.246094 L 18.664062 29.246094 Z M 21.34375 19.695312 " fill-opacity="1" fill-rule="nonzero"/><path fill="#d63900" d="M 19.269531 8.953125 L 19.269531 4.179688 L 18.664062 4.179688 L 18.664062 9.550781 C 18.664062 9.714844 18.722656 9.855469 18.839844 9.972656 C 18.960938 10.089844 19.101562 10.148438 19.269531 10.148438 L 21.679688 10.148438 L 21.679688 9.550781 L 19.871094 9.550781 C 19.703125 9.550781 19.5625 9.492188 19.445312 9.375 C 19.328125 9.257812 19.269531 9.117188 19.269531 8.953125 Z M 19.269531 8.953125 " fill-opacity="1" fill-rule="nonzero"/><path fill="#d63900" d="M 6.609375 4.179688 L 7.210938 4.179688 L 7.210938 5.96875 L 6.609375 5.96875 Z M 6.609375 4.179688 " fill-opacity="1" fill-rule="nonzero"/><path fill="#d63900" d="M 4.195312 4.179688 L 3.59375 4.179688 L 3.59375 10.148438 L 4.800781 10.148438 L 4.800781 9.550781 L 4.195312 9.550781 Z M 4.195312 4.179688 " fill-opacity="1" fill-rule="nonzero"/><path fill="#d63900" d="M 7.210938 7.164062 L 5.402344 7.164062 L 5.402344 7.757812 L 6.609375 7.757812 L 6.609375 10.148438 L 7.8125 10.148438 L 7.8125 9.550781 L 7.210938 9.550781 Z M 7.210938 7.164062 " fill-opacity="1" fill-rule="nonzero"/><path fill="#d63900" d="M 11.429688 4.773438 L 12.035156 4.773438 L 12.035156 5.371094 L 11.429688 5.371094 Z M 11.429688 4.773438 " fill-opacity="1" fill-rule="nonzero"/><path fill="#d63900" d="M 10.226562 4.773438 L 9.019531 4.773438 L 9.019531 4.179688 L 8.417969 4.179688 L 8.417969 5.371094 L 9.621094 5.371094 L 9.621094 10.148438 L 10.828125 10.148438 L 10.828125 9.550781 L 10.226562 9.550781 Z M 10.226562 4.773438 " fill-opacity="1" fill-rule="nonzero"/><path fill="#d63900" d="M 13.238281 4.1875 C 13.199219 4.183594 13.160156 4.183594 13.117188 4.191406 C 12.976562 4.21875 12.863281 4.289062 12.773438 4.398438 C 12.683594 4.507812 12.636719 4.632812 12.636719 4.773438 L 12.636719 10.148438 L 13.84375 10.148438 L 13.84375 9.550781 L 13.238281 9.550781 Z M 13.238281 4.1875 " fill-opacity="1" fill-rule="nonzero"/><path fill="#d63900" d="M 16.800781 4.183594 C 16.5625 4.207031 16.398438 4.324219 16.300781 4.542969 L 15.476562 6.445312 L 15.652344 6.84375 Z M 16.800781 4.183594 " fill-opacity="1" fill-rule="nonzero"/><path fill="#d63900" d="M 15.097656 8.589844 L 14.445312 7.085938 L 14.445312 9.074219 L 14.492188 9.183594 C 14.597656 9.425781 14.78125 9.546875 15.046875 9.546875 C 15.3125 9.546875 15.496094 9.425781 15.601562 9.183594 L 15.707031 8.941406 C 15.6875 8.941406 15.671875 8.949219 15.652344 8.949219 C 15.386719 8.949219 15.203125 8.832031 15.097656 8.589844 Z M 15.097656 8.589844 " fill-opacity="1" fill-rule="nonzero"/><path fill="#d63900" d="M 16.855469 7.085938 L 16.253906 8.480469 L 16.253906 10.148438 L 17.460938 10.148438 L 17.460938 9.550781 L 16.855469 9.550781 Z M 16.855469 7.085938 " fill-opacity="1" fill-rule="nonzero"/></svg>