<svg xmlns="http://www.w3.org/2000/svg" xmlns:xlink="http://www.w3.org/1999/xlink" width="50" zoomAndPan="magnify" viewBox="0 0 37.5 37.499999" height="50" preserveAspectRatio="xMidYMid meet" version="1.0"><defs><clipPath id="6706319c01"><path d="M 27 0 L 34.949219 0 L 34.949219 8 L 27 8 Z M 27 0 " clip-rule="nonzero"/></clipPath><clipPath id="8e755686bd"><path d="M 7 0 L 34.949219 0 L 34.949219 37.007812 L 7 37.007812 Z M 7 0 " clip-rule="nonzero"/></clipPath><clipPath id="b03b641fe5"><path d="M 28 7 L 34.949219 7 L 34.949219 9 L 28 9 Z M 28 7 " clip-rule="nonzero"/></clipPath><clipPath id="a0379cc55c"><path d="M 2.382812 1 L 25 1 L 25 12 L 2.382812 12 Z M 2.382812 1 " clip-rule="nonzero"/></clipPath></defs><g clip-path="url(#6706319c01)"><path fill="#ffed9e" d="M 27.707031 0 L 34.941406 7.164062 L 27.707031 7.164062 Z M 27.707031 0 " fill-opacity="1" fill-rule="nonzero"/></g><g clip-path="url(#8e755686bd)"><path fill="#fdd734" d="M 34.941406 7.164062 L 34.941406 37.007812 L 7.210938 37.007812 L 7.210938 0 L 27.707031 0 L 27.707031 7.164062 Z M 34.941406 7.164062 " fill-opacity="1" fill-rule="nonzero"/></g><path fill="#ffbf00" d="M 8.417969 4.773438 L 8.417969 33.425781 C 8.417969 33.742188 8.476562 34.046875 8.601562 34.339844 C 8.722656 34.632812 8.898438 34.890625 9.121094 35.113281 C 9.347656 35.335938 9.609375 35.511719 9.90625 35.632812 C 10.199219 35.753906 10.507812 35.8125 10.828125 35.8125 L 31.324219 35.8125 C 31.644531 35.8125 31.953125 35.753906 32.25 35.632812 C 32.542969 35.511719 32.804688 35.335938 33.03125 35.113281 C 33.257812 34.890625 33.429688 34.632812 33.554688 34.339844 C 33.675781 34.046875 33.738281 33.742188 33.738281 33.425781 L 33.738281 32.15625 C 8.417969 30.613281 8.417969 4.773438 8.417969 4.773438 Z M 8.417969 4.773438 " fill-opacity="1" fill-rule="nonzero"/><g clip-path="url(#b03b641fe5)"><path fill="#ffbf00" d="M 28.3125 7.164062 L 34.941406 7.164062 L 34.941406 8.355469 L 28.3125 8.355469 Z M 28.3125 7.164062 " fill-opacity="1" fill-rule="nonzero"/></g><g clip-path="url(#a0379cc55c)"><path fill="#ffbf00" d="M 2.386719 1.789062 L 24.089844 1.789062 L 24.089844 11.339844 L 2.386719 11.339844 Z M 2.386719 1.789062 " fill-opacity="1" fill-rule="nonzero"/></g><path fill="#e89e00" d="M 7.210938 11.339844 L 22.886719 11.339844 L 22.886719 13.132812 L 7.210938 13.132812 Z M 7.210938 11.339844 " fill-opacity="1" fill-rule="nonzero"/><path fill="#ffffff" d="M 15.046875 9.550781 C 13.140625 9.550781 12.636719 8.378906 12.636719 7.757812 L 13.238281 7.757812 L 13.84375 7.742188 C 13.847656 7.84375 13.9375 8.355469 15.046875 8.355469 C 15.214844 8.355469 15.355469 8.296875 15.472656 8.179688 C 15.59375 8.066406 15.652344 7.925781 15.652344 7.757812 C 15.652344 7.59375 15.59375 7.453125 15.472656 7.335938 C 15.355469 7.222656 15.214844 7.164062 15.046875 7.164062 L 14.445312 7.164062 C 14.207031 7.164062 13.972656 7.117188 13.753906 7.027344 C 13.53125 6.933594 13.335938 6.804688 13.167969 6.636719 C 12.996094 6.46875 12.867188 6.277344 12.773438 6.058594 C 12.683594 5.835938 12.636719 5.609375 12.636719 5.371094 C 12.636719 5.132812 12.683594 4.90625 12.773438 4.6875 C 12.867188 4.46875 12.996094 4.273438 13.167969 4.105469 C 13.335938 3.9375 13.53125 3.808594 13.753906 3.71875 C 13.972656 3.625 14.207031 3.582031 14.445312 3.582031 C 16.351562 3.582031 16.855469 4.753906 16.855469 5.371094 L 15.652344 5.371094 C 15.644531 5.285156 15.554688 4.773438 14.445312 4.773438 C 14.277344 4.773438 14.136719 4.832031 14.019531 4.949219 C 13.902344 5.066406 13.84375 5.207031 13.84375 5.371094 C 13.84375 5.535156 13.902344 5.675781 14.019531 5.792969 C 14.136719 5.910156 14.277344 5.96875 14.445312 5.96875 L 15.046875 5.96875 C 15.289062 5.96875 15.519531 6.015625 15.738281 6.105469 C 15.960938 6.195312 16.15625 6.324219 16.328125 6.492188 C 16.496094 6.660156 16.628906 6.855469 16.71875 7.074219 C 16.8125 7.292969 16.855469 7.523438 16.855469 7.757812 C 16.855469 7.996094 16.8125 8.226562 16.71875 8.445312 C 16.628906 8.664062 16.496094 8.859375 16.328125 9.027344 C 16.15625 9.195312 15.960938 9.324219 15.738281 9.414062 C 15.519531 9.503906 15.289062 9.550781 15.046875 9.550781 Z M 15.046875 9.550781 " fill-opacity="1" fill-rule="nonzero"/><path fill="#ffffff" d="M 10.226562 9.550781 C 9.984375 9.550781 9.753906 9.503906 9.53125 9.414062 C 9.3125 9.324219 9.117188 9.195312 8.945312 9.027344 C 8.777344 8.859375 8.644531 8.664062 8.554688 8.445312 C 8.460938 8.226562 8.417969 7.996094 8.417969 7.757812 L 8.417969 7.164062 L 9.621094 7.164062 L 9.621094 7.757812 C 9.621094 7.925781 9.679688 8.066406 9.796875 8.179688 C 9.917969 8.296875 10.058594 8.355469 10.226562 8.355469 C 10.390625 8.355469 10.535156 8.296875 10.652344 8.179688 C 10.769531 8.066406 10.828125 7.925781 10.828125 7.757812 L 10.828125 3.582031 L 12.035156 3.582031 L 12.035156 7.757812 C 12.035156 7.996094 11.988281 8.226562 11.894531 8.445312 C 11.804688 8.664062 11.671875 8.859375 11.503906 9.027344 C 11.335938 9.195312 11.136719 9.324219 10.917969 9.414062 C 10.695312 9.503906 10.464844 9.550781 10.226562 9.550781 Z M 10.226562 9.550781 " fill-opacity="1" fill-rule="nonzero"/><path fill="#ffffff" d="M 16.855469 30.441406 L 16.253906 30.441406 C 15.855469 30.441406 15.46875 30.363281 15.101562 30.210938 C 14.730469 30.0625 14.40625 29.84375 14.125 29.566406 C 13.839844 29.285156 13.621094 28.964844 13.46875 28.597656 C 13.316406 28.234375 13.238281 27.851562 13.238281 27.457031 L 13.238281 25.664062 C 13.214844 25.585938 13.085938 25.515625 12.992188 25.460938 C 12.703125 25.308594 12.441406 25.121094 12.207031 24.894531 C 12.089844 24.777344 12.03125 24.636719 12.03125 24.472656 C 12.03125 24.308594 12.089844 24.167969 12.207031 24.050781 C 12.441406 23.824219 12.703125 23.636719 12.992188 23.484375 C 13.078125 23.4375 13.164062 23.382812 13.238281 23.324219 L 13.238281 21.488281 C 13.238281 21.09375 13.316406 20.710938 13.46875 20.347656 C 13.621094 19.980469 13.839844 19.65625 14.125 19.378906 C 14.40625 19.097656 14.730469 18.882812 15.101562 18.730469 C 15.46875 18.578125 15.855469 18.503906 16.253906 18.503906 L 16.855469 18.503906 L 16.855469 19.695312 L 16.253906 19.695312 C 16.015625 19.695312 15.78125 19.742188 15.5625 19.832031 C 15.339844 19.925781 15.144531 20.054688 14.976562 20.222656 C 14.804688 20.390625 14.675781 20.582031 14.582031 20.800781 C 14.492188 21.023438 14.445312 21.25 14.445312 21.488281 L 14.445312 23.277344 C 14.445312 23.535156 14.375 23.773438 14.238281 23.988281 C 14.097656 24.203125 13.910156 24.367188 13.671875 24.472656 C 13.910156 24.578125 14.097656 24.738281 14.238281 24.957031 C 14.375 25.171875 14.445312 25.410156 14.445312 25.664062 L 14.445312 27.457031 C 14.445312 27.695312 14.492188 27.921875 14.582031 28.140625 C 14.675781 28.359375 14.804688 28.554688 14.976562 28.722656 C 15.144531 28.890625 15.339844 29.019531 15.5625 29.109375 C 15.78125 29.203125 16.015625 29.246094 16.253906 29.246094 L 16.855469 29.246094 Z M 16.855469 30.441406 " fill-opacity="1" fill-rule="nonzero"/><path fill="#ffffff" d="M 25.898438 30.441406 L 25.296875 30.441406 L 25.296875 29.246094 L 25.898438 29.246094 C 26.140625 29.246094 26.371094 29.203125 26.59375 29.109375 C 26.8125 29.019531 27.007812 28.890625 27.179688 28.722656 C 27.347656 28.554688 27.480469 28.359375 27.570312 28.140625 C 27.664062 27.921875 27.707031 27.695312 27.707031 27.457031 L 27.707031 25.664062 C 27.707031 25.410156 27.777344 25.171875 27.917969 24.957031 C 28.058594 24.738281 28.246094 24.578125 28.480469 24.472656 C 28.246094 24.367188 28.058594 24.203125 27.917969 23.988281 C 27.777344 23.773438 27.707031 23.535156 27.707031 23.277344 L 27.707031 21.488281 C 27.707031 21.25 27.664062 21.023438 27.570312 20.800781 C 27.480469 20.582031 27.347656 20.390625 27.179688 20.222656 C 27.007812 20.054688 26.8125 19.925781 26.59375 19.832031 C 26.371094 19.742188 26.140625 19.695312 25.898438 19.695312 L 25.296875 19.695312 L 25.296875 18.503906 L 25.898438 18.503906 C 26.300781 18.503906 26.683594 18.578125 27.050781 18.730469 C 27.421875 18.882812 27.746094 19.097656 28.03125 19.378906 C 28.3125 19.65625 28.53125 19.980469 28.683594 20.347656 C 28.835938 20.710938 28.914062 21.09375 28.914062 21.488281 L 28.914062 23.277344 C 28.941406 23.355469 29.070312 23.429688 29.160156 23.484375 C 29.449219 23.636719 29.710938 23.824219 29.945312 24.050781 C 30.0625 24.167969 30.121094 24.308594 30.121094 24.472656 C 30.121094 24.636719 30.0625 24.777344 29.945312 24.894531 C 29.710938 25.121094 29.449219 25.308594 29.160156 25.460938 C 29.074219 25.507812 28.988281 25.558594 28.914062 25.621094 L 28.914062 27.457031 C 28.914062 27.851562 28.835938 28.234375 28.683594 28.597656 C 28.53125 28.964844 28.3125 29.285156 28.03125 29.566406 C 27.746094 29.84375 27.421875 30.0625 27.050781 30.210938 C 26.683594 30.363281 26.300781 30.441406 25.898438 30.441406 Z M 25.898438 30.441406 " fill-opacity="1" fill-rule="nonzero"/><path fill="#ffffff" d="M 22.28125 21.488281 C 22.28125 21.644531 22.25 21.796875 22.191406 21.945312 C 22.128906 22.089844 22.042969 22.21875 21.929688 22.332031 C 21.816406 22.445312 21.6875 22.53125 21.539062 22.589844 C 21.390625 22.652344 21.238281 22.679688 21.078125 22.679688 C 20.917969 22.679688 20.761719 22.652344 20.617188 22.589844 C 20.46875 22.53125 20.335938 22.445312 20.222656 22.332031 C 20.109375 22.21875 20.023438 22.089844 19.960938 21.945312 C 19.902344 21.796875 19.871094 21.644531 19.871094 21.488281 C 19.871094 21.328125 19.902344 21.175781 19.960938 21.03125 C 20.023438 20.882812 20.109375 20.753906 20.222656 20.644531 C 20.335938 20.53125 20.46875 20.445312 20.617188 20.386719 C 20.761719 20.324219 20.917969 20.292969 21.078125 20.292969 C 21.238281 20.292969 21.390625 20.324219 21.539062 20.386719 C 21.6875 20.445312 21.816406 20.53125 21.929688 20.644531 C 22.042969 20.753906 22.128906 20.882812 22.191406 21.03125 C 22.25 21.175781 22.28125 21.328125 22.28125 21.488281 Z M 22.28125 21.488281 " fill-opacity="1" fill-rule="nonzero"/><path fill="#ffffff" d="M 19.871094 23.875 L 21.679688 23.875 L 19.871094 28.054688 L 18.664062 28.054688 Z M 19.871094 23.875 " fill-opacity="1" fill-rule="nonzero"/><path fill="#e89e00" d="M 15.988281 9.289062 C 15.824219 9.554688 15.605469 9.761719 15.328125 9.917969 C 15.054688 10.070312 14.761719 10.144531 14.445312 10.148438 C 12.539062 10.148438 12.035156 8.976562 12.035156 8.355469 L 12.769531 8.355469 C 13.015625 8.929688 13.660156 9.550781 15.046875 9.550781 C 15.386719 9.550781 15.699219 9.460938 15.988281 9.289062 Z M 15.988281 9.289062 " fill-opacity="1" fill-rule="nonzero"/><path fill="#e89e00" d="M 15.652344 7.757812 C 15.652344 7.925781 15.59375 8.066406 15.472656 8.179688 C 15.355469 8.296875 15.214844 8.355469 15.046875 8.355469 C 15.046875 8.191406 14.988281 8.050781 14.871094 7.933594 C 14.753906 7.816406 14.613281 7.757812 14.445312 7.757812 L 13.84375 7.757812 L 13.84375 7.742188 L 13.660156 7.746094 L 13.65625 7.746094 C 13.269531 7.707031 12.933594 7.558594 12.644531 7.304688 C 12.355469 7.050781 12.167969 6.734375 12.082031 6.359375 C 12 5.988281 12.03125 5.625 12.179688 5.269531 C 12.332031 4.917969 12.570312 4.640625 12.902344 4.441406 C 12.730469 4.71875 12.644531 5.015625 12.636719 5.339844 C 12.632812 5.664062 12.710938 5.964844 12.871094 6.25 C 13.03125 6.53125 13.25 6.753906 13.53125 6.917969 C 13.8125 7.082031 14.117188 7.164062 14.445312 7.164062 L 15.046875 7.164062 C 15.214844 7.164062 15.355469 7.222656 15.472656 7.335938 C 15.59375 7.453125 15.652344 7.59375 15.652344 7.757812 Z M 15.652344 7.757812 " fill-opacity="1" fill-rule="nonzero"/><path fill="#e89e00" d="M 16.253906 5.96875 L 15.046875 5.96875 C 15.042969 5.886719 14.953125 5.371094 13.84375 5.371094 C 13.84375 5.207031 13.902344 5.066406 14.019531 4.949219 C 14.136719 4.832031 14.277344 4.773438 14.445312 4.773438 C 15.554688 4.773438 15.644531 5.289062 15.652344 5.371094 L 16.121094 5.371094 C 16.207031 5.5625 16.25 5.761719 16.253906 5.96875 Z M 16.253906 5.96875 " fill-opacity="1" fill-rule="nonzero"/><path fill="#e89e00" d="M 10.828125 4.179688 L 10.828125 7.757812 C 10.828125 7.925781 10.769531 8.066406 10.652344 8.179688 C 10.535156 8.296875 10.390625 8.355469 10.226562 8.355469 L 10.226562 4.179688 Z M 10.828125 4.179688 " fill-opacity="1" fill-rule="nonzero"/><path fill="#e89e00" d="M 11.164062 9.289062 C 10.953125 9.628906 10.660156 9.875 10.285156 10.019531 C 9.90625 10.167969 9.523438 10.1875 9.132812 10.078125 C 8.742188 9.96875 8.425781 9.757812 8.179688 9.4375 C 7.9375 9.117188 7.8125 8.757812 7.8125 8.355469 L 7.8125 7.757812 L 8.417969 7.757812 C 8.417969 8.082031 8.5 8.382812 8.664062 8.664062 C 8.828125 8.941406 9.054688 9.160156 9.339844 9.320312 C 9.625 9.476562 9.929688 9.554688 10.257812 9.546875 C 10.582031 9.542969 10.886719 9.457031 11.164062 9.289062 Z M 11.164062 9.289062 " fill-opacity="1" fill-rule="nonzero"/><path fill="#e89e00" d="M 27.707031 29.84375 C 27.421875 30.21875 27.070312 30.511719 26.644531 30.722656 C 26.21875 30.933594 25.769531 31.039062 25.296875 31.039062 L 24.695312 31.039062 L 24.695312 29.84375 L 25.296875 29.84375 L 25.296875 30.441406 L 25.898438 30.441406 C 26.570312 30.445312 27.171875 30.246094 27.707031 29.84375 Z M 27.707031 29.84375 " fill-opacity="1" fill-rule="nonzero"/><path fill="#e89e00" d="M 27.835938 25.09375 C 27.746094 25.273438 27.703125 25.464844 27.707031 25.664062 L 27.707031 27.457031 C 27.707031 27.769531 27.628906 28.058594 27.476562 28.332031 C 27.320312 28.605469 27.109375 28.820312 26.839844 28.984375 C 27.015625 28.699219 27.105469 28.386719 27.105469 28.054688 L 27.105469 26.261719 C 27.101562 26.015625 27.167969 25.785156 27.300781 25.574219 C 27.429688 25.363281 27.609375 25.203125 27.835938 25.09375 Z M 27.835938 25.09375 " fill-opacity="1" fill-rule="nonzero"/><path fill="#e89e00" d="M 29.480469 25.265625 C 29.453125 25.351562 29.40625 25.429688 29.34375 25.492188 C 29.210938 25.621094 29.066406 25.742188 28.914062 25.84375 L 28.914062 25.625 C 28.992188 25.5625 29.074219 25.507812 29.160156 25.464844 C 29.273438 25.402344 29.378906 25.339844 29.480469 25.265625 Z M 29.480469 25.265625 " fill-opacity="1" fill-rule="nonzero"/><path fill="#e89e00" d="M 28.480469 24.472656 C 28.214844 24.609375 28.003906 24.804688 27.851562 25.058594 C 27.625 24.949219 27.441406 24.785156 27.304688 24.574219 C 27.171875 24.359375 27.105469 24.128906 27.105469 23.875 L 27.105469 22.085938 C 27.105469 21.847656 27.058594 21.621094 26.964844 21.398438 C 26.875 21.179688 26.742188 20.988281 26.574219 20.820312 C 26.40625 20.652344 26.210938 20.523438 25.988281 20.433594 C 25.765625 20.339844 25.535156 20.292969 25.296875 20.292969 L 24.695312 20.292969 L 24.695312 19.101562 L 25.296875 19.101562 L 25.296875 19.695312 L 25.898438 19.695312 C 26.140625 19.699219 26.371094 19.742188 26.589844 19.835938 C 26.8125 19.925781 27.007812 20.054688 27.175781 20.222656 C 27.347656 20.390625 27.476562 20.585938 27.570312 20.804688 C 27.660156 21.023438 27.707031 21.25 27.707031 21.488281 L 27.707031 23.277344 C 27.707031 23.535156 27.777344 23.769531 27.917969 23.988281 C 28.058594 24.203125 28.246094 24.363281 28.480469 24.472656 Z M 28.480469 24.472656 " fill-opacity="1" fill-rule="nonzero"/><path fill="#e89e00" d="M 16.253906 30.441406 L 16.253906 31.039062 L 15.652344 31.039062 C 15.25 31.039062 14.867188 30.960938 14.496094 30.8125 C 14.128906 30.660156 13.800781 30.445312 13.519531 30.164062 C 13.238281 29.882812 13.019531 29.5625 12.867188 29.195312 C 12.714844 28.828125 12.636719 28.449219 12.636719 28.054688 L 12.636719 26.261719 C 12.613281 26.183594 12.480469 26.113281 12.390625 26.058594 C 12.101562 25.90625 11.839844 25.714844 11.605469 25.492188 C 11.488281 25.375 11.429688 25.234375 11.429688 25.070312 C 11.429688 24.902344 11.488281 24.761719 11.605469 24.644531 C 11.75 24.507812 11.902344 24.382812 12.070312 24.273438 C 11.980469 24.511719 12.027344 24.71875 12.207031 24.894531 C 12.445312 25.121094 12.707031 25.308594 12.992188 25.464844 C 13.082031 25.515625 13.214844 25.589844 13.238281 25.664062 L 13.238281 27.457031 C 13.238281 27.851562 13.316406 28.234375 13.46875 28.597656 C 13.621094 28.964844 13.839844 29.285156 14.121094 29.566406 C 14.40625 29.847656 14.730469 30.0625 15.101562 30.214844 C 15.46875 30.363281 15.855469 30.441406 16.253906 30.441406 Z M 16.253906 30.441406 " fill-opacity="1" fill-rule="nonzero"/><path fill="#e89e00" d="M 13.84375 19.695312 C 13.4375 20.226562 13.238281 20.824219 13.238281 21.488281 L 13.238281 23.320312 C 13.164062 23.382812 13.082031 23.4375 12.992188 23.480469 C 12.890625 23.539062 12.769531 23.613281 12.636719 23.695312 L 12.636719 22.085938 C 12.636719 21.613281 12.742188 21.171875 12.957031 20.75 C 13.167969 20.332031 13.464844 19.980469 13.84375 19.695312 Z M 13.84375 19.695312 " fill-opacity="1" fill-rule="nonzero"/><path fill="#e89e00" d="M 16.253906 19.695312 L 16.253906 20.292969 L 15.652344 20.292969 C 15.3125 20.292969 15 20.382812 14.710938 20.554688 C 14.875 20.289062 15.09375 20.082031 15.367188 19.929688 C 15.644531 19.773438 15.9375 19.699219 16.253906 19.695312 Z M 16.253906 19.695312 " fill-opacity="1" fill-rule="nonzero"/><path fill="#e89e00" d="M 21.570312 22.574219 C 21.492188 22.753906 21.371094 22.90625 21.214844 23.027344 C 21.058594 23.148438 20.882812 23.226562 20.6875 23.261719 C 20.492188 23.296875 20.300781 23.289062 20.113281 23.230469 C 19.921875 23.171875 19.757812 23.070312 19.617188 22.933594 C 19.476562 22.792969 19.375 22.628906 19.316406 22.441406 C 19.257812 22.253906 19.246094 22.066406 19.285156 21.871094 C 19.320312 21.679688 19.398438 21.503906 19.523438 21.351562 C 19.644531 21.195312 19.796875 21.078125 19.980469 21 C 19.90625 21.152344 19.871094 21.316406 19.871094 21.488281 C 19.871094 21.644531 19.902344 21.796875 19.964844 21.945312 C 20.023438 22.089844 20.113281 22.21875 20.226562 22.332031 C 20.339844 22.441406 20.46875 22.527344 20.617188 22.589844 C 20.761719 22.648438 20.917969 22.679688 21.078125 22.679688 C 21.25 22.683594 21.414062 22.648438 21.570312 22.574219 Z M 21.570312 22.574219 " fill-opacity="1" fill-rule="nonzero"/><path fill="#e89e00" d="M 18.664062 28.054688 L 19.527344 28.054688 L 19.269531 28.648438 L 18.0625 28.648438 L 19.269531 24.472656 L 19.695312 24.472656 Z M 18.664062 28.054688 " fill-opacity="1" fill-rule="nonzero"/></svg>