<svg xmlns="http://www.w3.org/2000/svg" xmlns:xlink="http://www.w3.org/1999/xlink" width="50" zoomAndPan="magnify" viewBox="0 0 37.5 37.499999" height="50" preserveAspectRatio="xMidYMid meet" version="1.0"><defs><clipPath id="394eb1cf31"><path d="M 0.722656 4 L 36.25 4 L 36.25 37 L 0.722656 37 Z M 0.722656 4 " clip-rule="nonzero"/></clipPath></defs><path fill="#98ccfd" d="M 21.59375 20.25 C 21.59375 21.980469 20.207031 23.382812 18.488281 23.382812 C 16.769531 23.382812 15.378906 21.980469 15.378906 20.25 C 15.378906 18.515625 16.769531 17.113281 18.488281 17.113281 C 20.207031 17.113281 21.59375 18.515625 21.59375 20.25 Z M 21.59375 20.25 " fill-opacity="1" fill-rule="nonzero"/><path fill="#4788c7" d="M 18.488281 23.832031 C 16.527344 23.832031 14.933594 22.222656 14.933594 20.25 C 14.933594 18.273438 16.527344 16.664062 18.488281 16.664062 C 20.445312 16.664062 22.039062 18.273438 22.039062 20.25 C 22.039062 22.222656 20.445312 23.832031 18.488281 23.832031 Z M 18.488281 17.5625 C 17.019531 17.5625 15.824219 18.765625 15.824219 20.25 C 15.824219 21.730469 17.019531 22.933594 18.488281 22.933594 C 19.957031 22.933594 21.152344 21.730469 21.152344 20.25 C 21.152344 18.765625 19.957031 17.5625 18.488281 17.5625 Z M 18.488281 17.5625 " fill-opacity="1" fill-rule="nonzero"/><path fill="#98ccfd" d="M 35.804688 20.25 C 35.804688 17.742188 33.21875 15.5625 29.152344 14.167969 C 29.664062 11.777344 29.734375 9.640625 29.300781 8.003906 C 28.9375 6.640625 28.25 5.660156 27.261719 5.089844 C 26.664062 4.75 25.984375 4.574219 25.234375 4.574219 C 23.277344 4.574219 20.890625 5.828125 18.488281 7.96875 C 16.085938 5.828125 13.699219 4.574219 11.738281 4.574219 C 10.988281 4.574219 10.308594 4.746094 9.710938 5.089844 C 8.722656 5.660156 8.035156 6.640625 7.671875 8.007812 C 7.238281 9.640625 7.308594 11.777344 7.820312 14.167969 C 3.753906 15.5625 1.167969 17.746094 1.167969 20.25 C 1.167969 22.75 3.753906 24.933594 7.820312 26.328125 C 7.308594 28.71875 7.238281 30.855469 7.675781 32.488281 C 8.035156 33.855469 8.722656 34.835938 9.714844 35.40625 C 10.308594 35.75 10.992188 35.921875 11.738281 35.921875 C 13.699219 35.921875 16.085938 34.667969 18.488281 32.527344 C 20.890625 34.664062 23.273438 35.921875 25.234375 35.921875 C 25.984375 35.921875 26.664062 35.746094 27.261719 35.402344 C 28.25 34.835938 28.9375 33.851562 29.296875 32.488281 C 29.734375 30.855469 29.664062 28.71875 29.152344 26.328125 C 33.21875 24.9375 35.804688 22.753906 35.804688 20.25 Z M 26.378906 6.648438 C 26.945312 6.972656 27.347656 7.585938 27.582031 8.46875 C 27.9375 9.808594 27.871094 11.613281 27.441406 13.65625 C 26.027344 13.28125 24.472656 13 22.816406 12.816406 C 21.832031 11.46875 20.800781 10.257812 19.761719 9.195312 C 21.890625 7.328125 23.847656 6.367188 25.234375 6.367188 C 25.671875 6.367188 26.054688 6.460938 26.378906 6.648438 Z M 23.625 23.191406 C 23.042969 24.191406 22.449219 25.121094 21.84375 25.984375 C 20.773438 26.082031 19.652344 26.132812 18.484375 26.132812 C 17.316406 26.132812 16.195312 26.078125 15.125 25.984375 C 14.523438 25.121094 13.925781 24.191406 13.347656 23.191406 C 12.78125 22.214844 12.269531 21.230469 11.808594 20.25 C 12.269531 19.265625 12.78125 18.28125 13.347656 17.304688 C 13.925781 16.304688 14.523438 15.375 15.125 14.507812 C 16.195312 14.414062 17.320312 14.363281 18.488281 14.363281 C 19.65625 14.363281 20.777344 14.414062 21.84375 14.507812 C 22.449219 15.375 23.042969 16.300781 23.625 17.304688 C 24.191406 18.28125 24.703125 19.265625 25.164062 20.246094 C 24.703125 21.230469 24.191406 22.214844 23.625 23.191406 Z M 26.085938 22.390625 C 26.453125 23.320312 26.757812 24.230469 27.011719 25.109375 C 26.132812 25.339844 25.183594 25.539062 24.175781 25.695312 C 24.511719 25.175781 24.839844 24.644531 25.15625 24.09375 C 25.484375 23.527344 25.792969 22.960938 26.085938 22.390625 Z M 18.488281 30.085938 C 17.839844 29.425781 17.183594 28.691406 16.527344 27.875 C 17.171875 27.902344 17.824219 27.921875 18.488281 27.921875 C 19.148438 27.921875 19.800781 27.902344 20.445312 27.875 C 19.789062 28.691406 19.132812 29.425781 18.488281 30.085938 Z M 12.796875 25.695312 C 11.789062 25.539062 10.839844 25.339844 9.960938 25.109375 C 10.214844 24.230469 10.519531 23.320312 10.882812 22.390625 C 11.179688 22.960938 11.484375 23.53125 11.8125 24.097656 C 12.132812 24.644531 12.460938 25.175781 12.796875 25.695312 Z M 10.882812 18.105469 C 10.519531 17.175781 10.214844 16.265625 9.960938 15.386719 C 10.839844 15.15625 11.789062 14.957031 12.796875 14.800781 C 12.460938 15.320312 12.132812 15.851562 11.8125 16.398438 C 11.484375 16.96875 11.179688 17.535156 10.882812 18.105469 Z M 18.488281 10.410156 C 19.136719 11.070312 19.789062 11.804688 20.445312 12.621094 C 19.800781 12.59375 19.148438 12.574219 18.488281 12.574219 C 17.824219 12.574219 17.171875 12.59375 16.53125 12.621094 C 17.183594 11.804688 17.839844 11.070312 18.488281 10.410156 Z M 25.15625 16.398438 C 24.839844 15.851562 24.511719 15.320312 24.175781 14.800781 C 25.183594 14.957031 26.132812 15.15625 27.011719 15.386719 C 26.757812 16.265625 26.453125 17.175781 26.085938 18.105469 C 25.792969 17.535156 25.484375 16.96875 25.15625 16.398438 Z M 9.390625 8.46875 C 9.625 7.585938 10.03125 6.972656 10.59375 6.644531 C 10.917969 6.460938 11.300781 6.363281 11.738281 6.363281 C 13.128906 6.363281 15.082031 7.324219 17.214844 9.195312 C 16.171875 10.257812 15.140625 11.46875 14.15625 12.816406 C 12.5 13 10.945312 13.285156 9.53125 13.65625 C 9.101562 11.613281 9.03125 9.808594 9.390625 8.46875 Z M 2.945312 20.25 C 2.945312 18.699219 4.925781 17.054688 8.257812 15.898438 C 8.660156 17.300781 9.195312 18.761719 9.855469 20.25 C 9.195312 21.734375 8.660156 23.195312 8.257812 24.597656 C 4.925781 23.441406 2.945312 21.796875 2.945312 20.25 Z M 11.738281 34.132812 C 11.300781 34.132812 10.917969 34.039062 10.59375 33.851562 C 10.027344 33.527344 9.625 32.914062 9.390625 32.027344 C 9.03125 30.6875 9.101562 28.882812 9.53125 26.839844 C 10.945312 27.214844 12.496094 27.5 14.15625 27.679688 C 15.140625 29.027344 16.171875 30.238281 17.214844 31.300781 C 15.082031 33.171875 13.128906 34.132812 11.738281 34.132812 Z M 27.582031 32.027344 C 27.347656 32.910156 26.941406 33.523438 26.378906 33.847656 C 26.054688 34.035156 25.671875 34.128906 25.234375 34.128906 C 23.84375 34.128906 21.890625 33.171875 19.761719 31.300781 C 20.800781 30.238281 21.832031 29.027344 22.816406 27.679688 C 24.472656 27.5 26.023438 27.214844 27.441406 26.839844 C 27.867188 28.882812 27.9375 30.6875 27.582031 32.027344 Z M 28.714844 24.601562 C 28.3125 23.199219 27.777344 21.734375 27.117188 20.25 C 27.777344 18.761719 28.3125 17.296875 28.714844 15.898438 C 32.046875 17.054688 34.03125 18.699219 34.03125 20.25 C 34.03125 21.796875 32.046875 23.441406 28.714844 24.601562 Z M 28.714844 24.601562 " fill-opacity="1" fill-rule="nonzero"/><g clip-path="url(#394eb1cf31)"><path fill="#4788c7" d="M 11.738281 36.371094 C 10.914062 36.371094 10.15625 36.179688 9.492188 35.796875 C 8.394531 35.164062 7.636719 34.089844 7.246094 32.605469 C 6.824219 31.027344 6.847656 28.964844 7.304688 26.621094 C 3.117188 25.101562 0.722656 22.792969 0.722656 20.25 C 0.722656 17.703125 3.117188 15.394531 7.304688 13.875 C 6.847656 11.53125 6.824219 9.46875 7.246094 7.890625 C 7.636719 6.40625 8.394531 5.335938 9.492188 4.699219 C 11.730469 3.414062 14.980469 4.347656 18.488281 7.378906 C 21.996094 4.351562 25.242188 3.417969 27.480469 4.703125 C 28.578125 5.335938 29.332031 6.40625 29.726562 7.890625 C 30.148438 9.46875 30.125 11.53125 29.664062 13.875 C 33.855469 15.390625 36.25 17.703125 36.25 20.25 C 36.25 22.792969 33.855469 25.105469 29.664062 26.621094 C 30.125 28.964844 30.148438 31.027344 29.726562 32.605469 C 29.332031 34.089844 28.578125 35.164062 27.480469 35.792969 C 25.242188 37.082031 21.992188 36.144531 18.488281 33.121094 C 16.019531 35.25 13.695312 36.371094 11.738281 36.371094 Z M 11.738281 5.019531 C 11.066406 5.019531 10.460938 5.175781 9.933594 5.476562 C 9.046875 5.988281 8.433594 6.878906 8.101562 8.121094 C 7.695312 9.652344 7.75 11.710938 8.253906 14.074219 L 8.339844 14.464844 L 7.964844 14.59375 C 3.925781 15.976562 1.613281 18.035156 1.613281 20.25 C 1.613281 22.460938 3.925781 24.519531 7.964844 25.902344 L 8.335938 26.03125 L 8.253906 26.421875 C 7.75 28.789062 7.695312 30.847656 8.101562 32.375 C 8.433594 33.621094 9.046875 34.507812 9.933594 35.019531 C 10.460938 35.320312 11.070312 35.476562 11.738281 35.476562 C 13.527344 35.476562 15.816406 34.308594 18.191406 32.191406 L 18.488281 31.929688 L 18.78125 32.191406 C 21.15625 34.308594 23.449219 35.472656 25.234375 35.472656 C 25.90625 35.472656 26.511719 35.320312 27.042969 35.015625 C 27.925781 34.507812 28.539062 33.617188 28.871094 32.375 C 29.277344 30.84375 29.222656 28.789062 28.71875 26.421875 L 28.632812 26.03125 L 29.007812 25.902344 C 33.046875 24.523438 35.363281 22.460938 35.363281 20.25 C 35.363281 18.035156 33.046875 15.976562 29.007812 14.59375 L 28.632812 14.464844 L 28.71875 14.074219 C 29.222656 11.707031 29.277344 9.648438 28.871094 8.121094 C 28.539062 6.875 27.925781 5.988281 27.039062 5.480469 C 26.511719 5.175781 25.90625 5.023438 25.234375 5.023438 C 23.449219 5.023438 21.160156 6.1875 18.78125 8.304688 L 18.488281 8.570312 L 18.195312 8.304688 C 15.816406 6.1875 13.523438 5.019531 11.738281 5.019531 Z M 11.738281 34.578125 C 11.226562 34.578125 10.765625 34.464844 10.375 34.242188 C 9.703125 33.851562 9.226562 33.148438 8.960938 32.144531 C 8.597656 30.773438 8.644531 28.910156 9.09375 26.75 L 9.191406 26.289062 L 9.640625 26.40625 C 11.054688 26.777344 12.585938 27.058594 14.203125 27.234375 L 14.394531 27.257812 L 14.511719 27.414062 C 15.464844 28.714844 16.480469 29.914062 17.527344 30.988281 L 17.859375 31.328125 L 17.503906 31.640625 C 15.347656 33.535156 13.296875 34.578125 11.738281 34.578125 Z M 9.875 27.390625 C 9.457031 29.21875 9.445312 30.773438 9.816406 31.910156 C 10.066406 32.664062 10.355469 33.199219 10.8125 33.460938 C 11.964844 34.125 14.199219 33.25 16.5625 31.269531 C 15.644531 30.304688 14.753906 29.242188 13.914062 28.105469 C 12.496094 27.941406 11.140625 27.699219 9.875 27.390625 Z M 25.234375 34.578125 C 23.675781 34.578125 21.628906 33.535156 19.472656 31.640625 L 19.113281 31.328125 L 19.445312 30.988281 C 20.5 29.910156 21.511719 28.710938 22.460938 27.414062 L 22.578125 27.257812 L 22.769531 27.234375 C 24.386719 27.058594 25.921875 26.777344 27.332031 26.40625 L 27.785156 26.289062 L 27.878906 26.75 C 28.328125 28.910156 28.375 30.777344 28.011719 32.144531 C 27.746094 33.148438 27.269531 33.851562 26.601562 34.238281 C 26.207031 34.464844 25.75 34.578125 25.234375 34.578125 Z M 20.410156 31.269531 C 22.773438 33.246094 25.003906 34.125 26.160156 33.460938 C 26.617188 33.199219 26.90625 32.664062 27.152344 31.910156 C 27.527344 30.773438 27.511719 29.21875 27.097656 27.390625 C 25.832031 27.703125 24.476562 27.941406 23.058594 28.105469 C 22.21875 29.238281 21.332031 30.300781 20.410156 31.269531 Z M 18.488281 30.722656 L 18.171875 30.402344 C 17.484375 29.699219 16.816406 28.945312 16.183594 28.15625 L 15.5625 27.378906 L 16.550781 27.425781 C 17.820312 27.488281 19.152344 27.488281 20.421875 27.425781 L 21.410156 27.378906 L 20.789062 28.152344 C 20.160156 28.941406 19.492188 29.699219 18.804688 30.398438 Z M 17.507812 28.359375 C 17.828125 28.730469 18.15625 29.09375 18.488281 29.445312 C 18.820312 29.09375 19.144531 28.730469 19.464844 28.359375 C 18.816406 28.375 18.15625 28.375 17.507812 28.359375 Z M 18.488281 26.578125 C 17.347656 26.578125 16.203125 26.53125 15.085938 26.433594 L 14.882812 26.414062 L 14.761719 26.242188 C 14.121094 25.324219 13.515625 24.371094 12.964844 23.417969 C 12.414062 22.46875 11.890625 21.464844 11.40625 20.441406 L 11.316406 20.25 L 11.40625 20.054688 C 11.890625 19.03125 12.414062 18.027344 12.964844 17.078125 C 13.523438 16.113281 14.113281 15.1875 14.765625 14.253906 L 14.882812 14.082031 L 15.089844 14.0625 C 17.316406 13.867188 19.65625 13.867188 21.882812 14.0625 L 22.089844 14.082031 L 22.207031 14.253906 C 22.863281 15.195312 23.449219 16.117188 24.007812 17.078125 C 24.5625 18.035156 25.085938 19.039062 25.5625 20.058594 L 25.652344 20.25 L 25.5625 20.441406 C 25.085938 21.457031 24.5625 22.460938 24.007812 23.417969 C 23.449219 24.378906 22.863281 25.304688 22.207031 26.246094 L 22.089844 26.414062 L 21.882812 26.433594 C 20.769531 26.53125 19.628906 26.578125 18.488281 26.578125 Z M 15.371094 25.558594 C 17.421875 25.726562 19.554688 25.726562 21.601562 25.558594 C 22.191406 24.699219 22.730469 23.847656 23.242188 22.964844 C 23.75 22.089844 24.230469 21.179688 24.671875 20.25 C 24.230469 19.320312 23.75 18.40625 23.242188 17.53125 C 22.730469 16.648438 22.191406 15.800781 21.601562 14.9375 C 19.550781 14.769531 17.417969 14.769531 15.371094 14.9375 C 14.78125 15.796875 14.242188 16.644531 13.730469 17.53125 C 13.226562 18.398438 12.746094 19.3125 12.300781 20.25 C 12.746094 21.183594 13.226562 22.097656 13.730469 22.964844 C 14.238281 23.839844 14.789062 24.710938 15.371094 25.558594 Z M 23.261719 26.292969 L 23.800781 25.453125 C 24.132812 24.9375 24.457031 24.414062 24.773438 23.871094 C 25.097656 23.308594 25.402344 22.746094 25.691406 22.183594 L 26.144531 21.316406 L 26.5 22.226562 C 26.859375 23.144531 27.175781 24.070312 27.4375 24.988281 L 27.566406 25.429688 L 27.125 25.542969 C 26.222656 25.78125 25.253906 25.980469 24.242188 26.140625 Z M 26.015625 23.472656 C 25.863281 23.757812 25.703125 24.039062 25.539062 24.324219 C 25.390625 24.582031 25.238281 24.835938 25.085938 25.085938 C 25.554688 24.996094 26.011719 24.898438 26.453125 24.789062 C 26.320312 24.351562 26.171875 23.910156 26.015625 23.472656 Z M 13.710938 26.292969 L 12.726562 26.140625 C 11.71875 25.980469 10.75 25.78125 9.847656 25.542969 L 9.40625 25.429688 L 9.535156 24.988281 C 9.796875 24.074219 10.113281 23.148438 10.472656 22.226562 L 10.828125 21.316406 L 11.28125 22.1875 C 11.570312 22.75 11.871094 23.3125 12.199219 23.871094 C 12.511719 24.414062 12.839844 24.9375 13.171875 25.453125 Z M 10.519531 24.789062 C 10.960938 24.894531 11.417969 24.992188 11.882812 25.082031 C 11.730469 24.832031 11.578125 24.578125 11.429688 24.320312 C 11.265625 24.039062 11.109375 23.757812 10.953125 23.472656 C 10.796875 23.914062 10.652344 24.351562 10.519531 24.789062 Z M 28.417969 25.175781 L 28.285156 24.722656 C 27.890625 23.335938 27.359375 21.894531 26.710938 20.433594 L 26.632812 20.25 L 26.710938 20.066406 C 27.359375 18.605469 27.890625 17.160156 28.289062 15.773438 L 28.417969 15.320312 L 28.859375 15.472656 C 32.375 16.691406 34.472656 18.476562 34.472656 20.25 C 34.472656 22.019531 32.375 23.804688 28.859375 25.023438 Z M 27.605469 20.25 C 28.164062 21.527344 28.632812 22.792969 29.007812 24.019531 C 31.804688 22.96875 33.585938 21.511719 33.585938 20.25 C 33.585938 18.984375 31.804688 17.527344 29.007812 16.476562 C 28.632812 17.707031 28.164062 18.972656 27.605469 20.25 Z M 8.554688 25.175781 L 8.113281 25.023438 C 4.597656 23.800781 2.5 22.019531 2.5 20.25 C 2.5 18.476562 4.597656 16.695312 8.113281 15.472656 L 8.554688 15.320312 L 8.683594 15.773438 C 9.082031 17.164062 9.613281 18.609375 10.257812 20.066406 L 10.339844 20.25 L 10.257812 20.429688 C 9.613281 21.886719 9.082031 23.332031 8.683594 24.722656 Z M 7.964844 16.476562 C 5.167969 17.527344 3.386719 18.984375 3.386719 20.25 C 3.386719 21.511719 5.167969 22.96875 7.964844 24.019531 C 8.339844 22.785156 8.808594 21.523438 9.367188 20.25 C 8.808594 18.972656 8.339844 17.710938 7.964844 16.476562 Z M 10.828125 19.179688 L 10.472656 18.269531 C 10.113281 17.351562 9.796875 16.421875 9.535156 15.511719 L 9.40625 15.070312 L 9.847656 14.953125 C 10.75 14.71875 11.71875 14.515625 12.726562 14.359375 L 13.710938 14.203125 L 13.167969 15.046875 C 12.835938 15.5625 12.511719 16.085938 12.195312 16.628906 C 11.871094 17.1875 11.566406 17.75 11.277344 18.3125 Z M 10.519531 15.707031 C 10.652344 16.144531 10.796875 16.582031 10.953125 17.023438 C 11.109375 16.742188 11.265625 16.457031 11.429688 16.175781 C 11.578125 15.917969 11.730469 15.664062 11.882812 15.414062 C 11.417969 15.5 10.960938 15.601562 10.519531 15.707031 Z M 26.144531 19.179688 L 25.691406 18.3125 C 25.402344 17.75 25.097656 17.1875 24.773438 16.625 C 24.460938 16.085938 24.132812 15.558594 23.800781 15.042969 L 23.261719 14.203125 L 24.242188 14.359375 C 25.253906 14.515625 26.222656 14.71875 27.125 14.953125 L 27.566406 15.070312 L 27.4375 15.511719 C 27.175781 16.425781 26.859375 17.355469 26.5 18.273438 Z M 25.085938 15.414062 C 25.238281 15.664062 25.390625 15.917969 25.542969 16.175781 C 25.707031 16.457031 25.863281 16.742188 26.019531 17.023438 C 26.175781 16.585938 26.320312 16.144531 26.453125 15.707031 C 26.011719 15.601562 25.554688 15.5 25.085938 15.414062 Z M 27.78125 14.207031 L 27.332031 14.089844 C 25.921875 13.71875 24.386719 13.441406 22.769531 13.261719 L 22.574219 13.238281 L 22.460938 13.082031 C 21.507812 11.785156 20.496094 10.582031 19.445312 9.511719 L 19.113281 9.171875 L 19.46875 8.859375 C 22.335938 6.339844 25.015625 5.347656 26.597656 6.257812 C 27.269531 6.644531 27.742188 7.351562 28.011719 8.355469 C 28.375 9.722656 28.328125 11.585938 27.875 13.75 Z M 23.058594 12.390625 C 24.476562 12.554688 25.832031 12.796875 27.097656 13.105469 C 27.558594 11.398438 27.621094 9.886719 27.152344 8.585938 C 26.886719 7.839844 26.617188 7.300781 26.160156 7.035156 C 25.007812 6.375 22.773438 7.246094 20.410156 9.226562 C 21.328125 10.195312 22.21875 11.257812 23.058594 12.390625 Z M 9.191406 14.207031 L 9.09375 13.75 C 8.644531 11.585938 8.597656 9.722656 8.960938 8.355469 C 9.226562 7.347656 9.703125 6.644531 10.375 6.257812 C 11.960938 5.34375 14.636719 6.339844 17.503906 8.859375 L 17.863281 9.171875 L 17.53125 9.511719 C 16.476562 10.585938 15.464844 11.785156 14.511719 13.082031 L 14.398438 13.242188 L 14.203125 13.261719 C 12.589844 13.441406 11.054688 13.71875 9.640625 14.089844 Z M 11.738281 6.8125 C 11.378906 6.8125 11.070312 6.886719 10.8125 7.035156 C 10.355469 7.296875 10.125 7.855469 9.816406 8.585938 C 9.339844 9.726562 9.417969 11.28125 9.875 13.105469 C 11.140625 12.796875 12.496094 12.554688 13.914062 12.390625 C 14.753906 11.257812 15.644531 10.195312 16.5625 9.226562 C 14.726562 7.6875 12.984375 6.8125 11.738281 6.8125 Z M 15.5625 13.117188 L 16.183594 12.339844 C 16.816406 11.554688 17.484375 10.796875 18.171875 10.097656 L 18.488281 9.773438 L 18.800781 10.097656 C 19.492188 10.800781 20.160156 11.554688 20.789062 12.339844 L 21.40625 13.117188 L 20.421875 13.070312 C 19.152344 13.007812 17.820312 13.007812 16.550781 13.070312 Z M 18.488281 12.125 C 18.816406 12.125 19.140625 12.128906 19.464844 12.136719 C 19.148438 11.765625 18.820312 11.40625 18.488281 11.054688 C 18.15625 11.402344 17.828125 11.765625 17.511719 12.136719 C 17.832031 12.128906 18.15625 12.125 18.488281 12.125 Z M 18.488281 12.125 " fill-opacity="1" fill-rule="nonzero"/></g></svg>